<?xml version="1.0" encoding="utf-8"?>
<!-- Generator: Adobe Illustrator 24.0.1, SVG Export Plug-In . SVG Version: 6.00 Build 0)  -->
<svg version="1.1" id="レイヤー_1" xmlns="http://www.w3.org/2000/svg" xmlns:xlink="http://www.w3.org/1999/xlink" x="0px"
	 y="0px" viewBox="0 0 501.7 586.6" style="enable-background:new 0 0 501.7 586.6;" xml:space="preserve">
<style type="text/css">
	.st0{fill:#46291B;}
	.st1{fill:#F6D3CB;}
	.st2{clip-path:url(#SVGID_2_);}
	.st3{fill:#231815;}
	.st4{fill:none;stroke:#231815;stroke-miterlimit:10;}
</style>
<title>髪型01</title>
<g id="レイヤー_2_1_">
	<g id="ロング">
		<path class="st0" d="M16.5,184.7c0,0-40.4,201.9,6.1,269.7S36,585.8,36,585.8l192.2-41.7l-2.3-97.5L16.5,184.7z"/>
		<path class="st0" d="M449.4,186.9c0,0,67.3,192.5,30.6,267.5s4.6,132.2,4.6,132.2l-211.2-42.5l4.7-62L449.4,186.9z"/>
		<ellipse class="st0" cx="205.8" cy="226.3" rx="192" ry="212.8"/>
		<ellipse class="st0" cx="286.2" cy="235.9" rx="202.2" ry="235.9"/>
		<path class="st1" d="M480.5,244.1c-0.7,0-1.3,0.1-2,0.2C464.4,138.8,368.4,57.1,252.1,57.1S39.8,138.7,25.7,244.2
			c-0.6-0.1-1.1-0.1-1.7-0.1c-11.5,0-20.8,16-20.8,35.6s9.3,35.6,20.8,35.6c1.6,0,3.2-0.3,4.6-0.9c19.5,88.8,97.6,157.5,194.8,168.9
			l4.8,60.7h45.2l4.8-60.4c98.4-10.5,177.7-79.7,197.4-169.3c1.6,0.7,3.3,1,5,1c11.5,0,20.8-16,20.8-35.6S492,244.1,480.5,244.1z"/>
		<g>
			<defs>
				<path id="SVGID_1_" d="M480.8,243.8c-0.7,0-1.3,0.1-2,0.2C464.7,138.3,368.6,56.5,252.1,56.5S39.5,138.2,25.4,243.9
					c-0.6-0.1-1.1-0.1-1.7-0.1c-11.5,0-20.9,16-20.9,35.7s9.3,35.7,20.9,35.7c1.6,0,3.2-0.3,4.6-0.9c19.5,88.9,97.8,157.6,195,169.1
					l4.8,60.8h45.3l4.8-60.5c98.5-10.5,178-79.8,197.6-169.5c1.6,0.7,3.3,1,5,1c11.5,0,20.9-16,20.9-35.7S492.3,243.8,480.8,243.8z"
					/>
			</defs>
			<clipPath id="SVGID_2_">
				<use xlink:href="#SVGID_1_"  style="overflow:visible;"/>
			</clipPath>
			<g class="st2">
				<path class="st0" d="M157.8,146.1c0,0-65.2,111.2,258.8,78.6s68-11.1,68-11.1L439.2,8.4L260.2,25L47.9,95.8L0,183.2l10.4,54.1
					C10.4,237.3,147,248.4,157.8,146.1z"/>
			</g>
		</g>
		<polyline class="st0" points="39.2,228.9 96.6,153.3 179.4,103.2 285.1,88.6 373.4,129.6 421.7,191.5 460.9,207.9 472.7,217 
			461.8,170.6 437.2,121.4 398,95 337,45.8 306.9,45.8 245.9,44 197.6,44 144.8,60.4 112.9,93.1 76.5,108.6 67.4,131.4 46.5,167.8 
			33.7,193.3 26.4,213.4 		"/>
		<ellipse class="st3" cx="176" cy="283.1" rx="10.4" ry="19"/>
		<ellipse class="st3" cx="308" cy="283.1" rx="10.4" ry="19"/>
		<path class="st4" d="M244,307.3c0,0-28.4,20.7,0.9,25.8"/>
		<path class="st4" d="M218,360.2c0,0,25.2,25.2,47-1.4"/>
	</g>
</g>
</svg>
