<svg xmlns="http://www.w3.org/2000/svg" viewBox="0 0 411.05 253.12"><defs><style>.cls-1{fill:#424142;}</style></defs><title>デビル</title><g id="レイヤー_2" data-name="レイヤー 2"><g id="黒猫"><path class="cls-1" d="M205.52,121c109.16,0,198.42,58.41,205.11,132.17.27-2.94.42-5.91.42-8.9,0-77.91-92-141.07-205.53-141.07S0,166.31,0,244.22c0,3,.15,6,.42,8.9C7.11,179.36,96.37,121,205.52,121Z"/><path class="cls-1" d="M20.94,192.26s-.3-.62-.81-1.81C14.62,177.42-14.68,96,71.49,7.8c0,0,52.17,67,56.08,119.6L77.33,146.49Z"/><path class="cls-1" d="M384,174.83s.21-.65.53-1.91c3.51-13.7,20.3-98.58-78.09-172.92,0,0-41.57,74.05-37.56,126.64L321.44,138Z"/></g></g></svg>