<svg xmlns="http://www.w3.org/2000/svg" viewBox="0 0 409.52 332.85"><defs><style>.cls-1{fill:#fff;}.cls-2{fill:#efefef;}.cls-3{fill:#e3d1de;}.cls-4{fill:#c8bbc4;}</style></defs><title>服04</title><g id="レイヤー_2" data-name="レイヤー 2"><g id="レイヤー_22" data-name="レイヤー 22"><polygon class="cls-1" points="152.67 332.85 256.85 332.85 256.58 25.12 143.33 23.91 152.67 332.85"/><path class="cls-2" d="M200.84,32.4,170.05,50.18A7.83,7.83,0,0,1,158.3,43.4V7.84a7.83,7.83,0,0,1,11.75-6.78l30.79,17.78A7.83,7.83,0,0,1,200.84,32.4Z"/><path class="cls-2" d="M208.67,32.4l30.8,17.78a7.82,7.82,0,0,0,11.74-6.78V7.84a7.83,7.83,0,0,0-11.74-6.78l-30.8,17.78A7.83,7.83,0,0,0,208.67,32.4Z"/><path class="cls-3" d="M152.67,332.85H23.23c-3,0-5.47-2.06-5.63-4.69L.05,96.5c-.92-15.82,10.3-30.24,27.42-35.23l123.43-53c3.64-1.06,7.4,1.32,7.4,4.69v315C158.3,330.64,155.78,332.85,152.67,332.85Z"/><path class="cls-3" d="M256.85,332.85H386.29c3,0,5.47-2.06,5.62-4.69L409.46,96.5c.93-15.82-10.29-30.24-27.41-35.23l-123.43-53c-3.65-1.06-7.41,1.32-7.41,4.69v315C251.21,330.64,253.74,332.85,256.85,332.85Z"/><path class="cls-4" d="M158.3,13l-56,35.49a19.55,19.55,0,0,0-1.78,31.74l57.79,46.47Z"/><path class="cls-4" d="M158.3,100l-44.71,28.33a15.61,15.61,0,0,0-1.42,25.34l46.13,37.09Z"/><path class="cls-4" d="M251.21,13l56,35.49A19.55,19.55,0,0,1,309,80.24l-57.8,46.47Z"/><path class="cls-4" d="M251.21,100l44.71,28.33a15.61,15.61,0,0,1,1.43,25.34l-46.14,37.09Z"/></g></g></svg>