<svg xmlns="http://www.w3.org/2000/svg" xmlns:xlink="http://www.w3.org/1999/xlink" viewBox="0 0 846.51 596.53"><defs><style>.cls-1,.cls-7{fill:none;}.cls-2{fill:#391e16;}.cls-3{fill:#46291b;}.cls-4{fill:#f6d3cb;}.cls-5{clip-path:url(#clip-path);}.cls-6{fill:#231815;}.cls-7{stroke:#231815;stroke-miterlimit:10;}</style><clipPath id="clip-path"><path class="cls-1" d="M654.07,243.72a11.55,11.55,0,0,0-2,.18C638,138.23,541.84,56.48,425.37,56.48S212.8,138.21,198.71,243.85a12,12,0,0,0-1.7-.13c-11.52,0-20.86,16-20.86,35.7s9.34,35.69,20.86,35.69a12.91,12.91,0,0,0,4.63-.89c19.54,88.87,97.77,157.64,195,169.08l4.78,60.78H446.7l4.76-60.5c98.51-10.51,178-79.76,197.66-169.49a12.86,12.86,0,0,0,5,1c11.52,0,20.86-16,20.86-35.69S665.59,243.72,654.07,243.72Z"/></clipPath></defs><title>illu-hairstyle-05</title><g id="お団子"><circle class="cls-2" cx="603.83" cy="105.12" r="106.15"/><ellipse class="cls-3" cx="379.05" cy="226.23" rx="192.01" ry="212.83"/><ellipse class="cls-3" cx="459.49" cy="235.82" rx="202.25" ry="235.85"/><path class="cls-4" d="M653.8,244.09a12.57,12.57,0,0,0-2,.17C637.7,138.73,541.7,57.07,425.37,57.07S213.06,138.7,199,244.21a13.58,13.58,0,0,0-1.69-.12c-11.51,0-20.84,16-20.84,35.65s9.33,35.65,20.84,35.65a12.66,12.66,0,0,0,4.62-.9C221.43,403.26,299.56,472,396.69,483.37l4.77,60.71h45.22l4.75-60.43C549.81,473.16,629.2,404,648.84,314.36a12.7,12.7,0,0,0,5,1c11.5,0,20.83-16,20.83-35.65S665.3,244.09,653.8,244.09Z"/><g class="cls-5"><path class="cls-3" d="M331.11,146.07S266,257.24,589.87,224.65s68-11.13,68-11.13L612.49,8.35,433.48,25,221.17,95.78,173.29,183.2l10.41,54.12S320.34,248.4,331.11,146.07Z"/></g><polyline class="cls-3" points="212.46 228.82 269.84 153.23 352.72 103.14 458.37 88.56 546.72 129.55 594.99 191.48 634.15 207.88 645.99 216.99 635.06 170.53 610.47 121.35 571.31 94.94 510.29 45.76 480.23 45.76 419.21 43.94 370.94 43.94 318.11 60.33 286.23 93.12 249.8 108.6 240.69 131.37 219.75 167.8 206.99 193.3 199.71 213.34"/><ellipse class="cls-6" cx="349.29" cy="283.04" rx="10.42" ry="19.02"/><ellipse class="cls-6" cx="481.25" cy="283.04" rx="10.42" ry="19.02"/><path class="cls-7" d="M417.29,307.28s-28.41,20.65.86,25.82"/><path class="cls-7" d="M391.31,360.13s25.22,25.22,46.94-1.4"/><path class="cls-3" d="M656.54,238.89s16.33,145.4-45.73,222.52c0,0,48-79.18,34.94-225.78S656.54,238.89,656.54,238.89Z"/><path class="cls-3" d="M198.47,234.65s-16.15,145.41,46,222.47c0,0-48-79.13-35.2-225.75S198.47,234.65,198.47,234.65Z"/></g><g id="ツインテール"><rect class="cls-1" y="-19.78" width="1330.44" height="616.31"/></g></svg>