<svg xmlns="http://www.w3.org/2000/svg" viewBox="0 0 464.33 374.54"><defs><style>.cls-1{fill:#e8e8e8;}.cls-2{fill:#dbb2d2;}</style></defs><title>アセット 2</title><g id="レイヤー_2" data-name="レイヤー 2"><g id="うさぎ"><path class="cls-1" d="M212.13,242.36c109.15,0,198.41,58.41,205.11,132.18.26-3,.41-5.91.41-8.9,0-77.91-92-141.07-205.52-141.07S6.6,287.73,6.6,365.64c0,3,.16,5.95.42,8.9C13.71,300.77,103,242.36,212.13,242.36Z"/><path class="cls-1" d="M117.52,252.46S-58.34,55.63,20.2,3.91c0,0,99.15-53.13,137.19,232.32l.07,3.22Z"/><path class="cls-2" d="M117.47,236.18S1.76,95.89,46.54,55.46c0,0,57.13-42,94.16,167.6l.2,2.38Z"/><path class="cls-1" d="M380,96.41c-61.58-37.34-85.42-11.15-85.42-11.15s-34.64,32-43,152.15l54.43,14.32s35.22-43.59,50.12-70.61c90.95,74.22,103.67,29,103.67,29C477.68,158,441.53,133.76,380,96.41Z"/><path class="cls-2" d="M304.09,118.35s28.39,39.69,35.38,44.1c0,0-19.66,58.07-43.68,77.55l-24.9-6.61S275.26,129.74,304.09,118.35Z"/></g></g></svg>