<?xml version="1.0" encoding="utf-8"?>
<!-- Generator: Adobe Illustrator 24.0.1, SVG Export Plug-In . SVG Version: 6.00 Build 0)  -->
<svg version="1.1" id="レイヤー_1" xmlns="http://www.w3.org/2000/svg" xmlns:xlink="http://www.w3.org/1999/xlink" x="0px"
	 y="0px" viewBox="0 0 536.7 559.1" style="enable-background:new 0 0 536.7 559.1;" xml:space="preserve">
<style type="text/css">
	.st0{fill:#391E16;}
	.st1{fill:#46291B;}
	.st2{fill:#F6D3CB;}
	.st3{clip-path:url(#SVGID_2_);}
	.st4{fill:#231815;}
	.st5{fill:none;stroke:#231815;stroke-miterlimit:10;}
</style>
<title>髪型05</title>
<g id="レイヤー_2_1_">
	<g id="お団子">
		<circle class="st0" cx="430.5" cy="106.1" r="106.1"/>
		<ellipse class="st1" cx="205.8" cy="241.2" rx="192" ry="212.8"/>
		<ellipse class="st1" cx="286.2" cy="250.8" rx="202.2" ry="235.9"/>
		<path class="st2" d="M480.5,259.1c-0.7,0-1.3,0.1-2,0.2C464.4,153.8,368.4,72.1,252.1,72.1S39.8,153.7,25.7,259.2
			c-0.6-0.1-1.1-0.1-1.7-0.1c-11.5,0-20.8,16-20.8,35.6s9.3,35.6,20.8,35.6c1.6,0,3.2-0.3,4.6-0.9c19.5,88.8,97.7,157.5,194.8,168.9
			l4.8,60.7h45.2l4.8-60.4c98.4-10.5,177.8-79.7,197.4-169.3c1.6,0.7,3.3,1,5,1c11.5,0,20.8-16,20.8-35.6S492,259.1,480.5,259.1z"/>
		<g>
			<defs>
				<path id="SVGID_1_" d="M480.8,258.8c-0.7,0-1.3,0.1-2,0.2C464.7,153.3,368.5,71.5,252.1,71.5S39.5,153.2,25.4,258.9
					c-0.6-0.1-1.1-0.1-1.7-0.1c-11.5,0-20.9,16-20.9,35.7s9.3,35.7,20.9,35.7c1.6,0,3.2-0.3,4.6-0.9c19.5,88.9,97.8,157.6,195,169.1
					l4.8,60.8h45.3l4.8-60.5c98.5-10.5,178-79.8,197.6-169.5c1.6,0.7,3.3,1,5,1c11.5,0,20.9-16,20.9-35.7S492.3,258.8,480.8,258.8z"
					/>
			</defs>
			<clipPath id="SVGID_2_">
				<use xlink:href="#SVGID_1_"  style="overflow:visible;"/>
			</clipPath>
			<g class="st3">
				<path class="st1" d="M157.9,161.1c0,0-65.2,111.2,258.7,78.6s68-11.1,68-11.1L439.2,23.4L260.2,40L47.9,110.8L0,198.2l10.4,54.1
					C10.4,252.4,147.1,263.4,157.9,161.1z"/>
			</g>
		</g>
		<polyline class="st1" points="39.2,243.9 96.6,168.3 179.4,118.2 285.1,103.6 373.4,144.6 421.7,206.5 460.9,222.9 472.7,232 
			461.8,185.6 437.2,136.4 398,110 337,60.8 306.9,60.8 245.9,59 197.6,59 144.8,75.4 112.9,108.1 76.5,123.6 67.4,146.4 
			46.5,182.8 33.7,208.3 26.4,228.4 		"/>
		<ellipse class="st4" cx="176" cy="298.1" rx="10.4" ry="19"/>
		<ellipse class="st4" cx="308" cy="298.1" rx="10.4" ry="19"/>
		<path class="st5" d="M244,322.3c0,0-28.4,20.7,0.9,25.8"/>
		<path class="st5" d="M218,375.1c0,0,25.2,25.2,47-1.4"/>
		<path class="st1" d="M483.2,253.9c0,0,16.3,145.4-45.7,222.5c0,0,48-79.2,34.9-225.8S483.2,253.9,483.2,253.9z"/>
		<path class="st1" d="M25.2,249.7c0,0-16.2,145.4,46,222.5c0,0-48-79.1-35.2-225.8S25.2,249.7,25.2,249.7z"/>
	</g>
</g>
</svg>
