<svg xmlns="http://www.w3.org/2000/svg" xmlns:xlink="http://www.w3.org/1999/xlink" viewBox="0 0 846.51 596.53"><defs><style>.cls-1,.cls-6{fill:none;}.cls-2{fill:#46291b;}.cls-3{fill:#f6d3cb;}.cls-4{clip-path:url(#clip-path);}.cls-5{fill:#231815;}.cls-6{stroke:#231815;stroke-miterlimit:10;}</style><clipPath id="clip-path"><path class="cls-1" d="M654.29,243.76a12.57,12.57,0,0,0-2,.17C638.17,138.27,542.06,56.51,425.58,56.51S213,138.24,198.92,243.88a13.58,13.58,0,0,0-1.69-.12c-11.52,0-20.86,16-20.86,35.69s9.34,35.69,20.86,35.69a12.7,12.7,0,0,0,4.63-.89c19.54,88.87,97.76,157.64,195,169.08l4.78,60.79h45.27l4.76-60.51c98.5-10.51,178-79.76,197.65-169.49a12.87,12.87,0,0,0,5,1c11.52,0,20.86-16,20.86-35.69S665.81,243.76,654.29,243.76Z"/></clipPath></defs><title>illu-hairstyle-02</title><g id="ロング"><path class="cls-2" d="M190,184.73s-40.36,201.93,6.11,269.7,13.46,131.39,13.46,131.39l212.68-27.41L399.41,446.67Z"/><path class="cls-2" d="M622.92,186.91s67.33,192.51,30.62,267.55,4.58,132.17,4.58,132.17l-213.89,9.9,7.35-114.38Z"/><ellipse class="cls-2" cx="379.27" cy="226.26" rx="192.01" ry="212.83"/><ellipse class="cls-2" cx="459.71" cy="235.85" rx="202.25" ry="235.85"/><path class="cls-3" d="M654,244.12a12.57,12.57,0,0,0-2,.17C637.92,138.76,541.92,57.1,425.58,57.1S213.28,138.73,199.2,244.25a11.93,11.93,0,0,0-1.7-.13c-11.5,0-20.83,16-20.83,35.65s9.33,35.65,20.83,35.65a12.87,12.87,0,0,0,4.63-.89C221.65,403.3,299.78,472,396.9,483.4l4.78,60.72H446.9l4.75-60.44C550,473.19,629.42,404,649.06,314.4a12.87,12.87,0,0,0,5,1c11.5,0,20.83-16,20.83-35.65S665.52,244.12,654,244.12Z"/><g class="cls-4"><path class="cls-2" d="M331.33,146.1s-65.16,111.17,258.76,78.59,68-11.14,68-11.14L612.71,8.39,433.7,25,221.38,95.81l-47.87,87.42,10.41,54.12S320.56,248.43,331.33,146.1Z"/></g><polyline class="cls-2" points="212.68 228.86 270.06 153.26 352.94 103.17 458.59 88.6 546.94 129.58 595.21 191.51 634.37 207.91 646.21 217.02 635.28 170.57 610.69 121.38 571.53 94.97 510.5 45.79 480.45 45.79 419.43 43.97 371.15 43.97 318.33 60.36 286.45 93.15 250.02 108.63 240.91 131.4 219.96 167.83 207.21 193.34 199.93 213.37"/><ellipse class="cls-5" cx="349.5" cy="283.07" rx="10.42" ry="19.02"/><ellipse class="cls-5" cx="481.47" cy="283.07" rx="10.42" ry="19.02"/><path class="cls-6" d="M417.51,307.31s-28.41,20.66.86,25.82"/><path class="cls-6" d="M391.52,360.16s25.23,25.22,47-1.4"/></g></svg>