<svg xmlns="http://www.w3.org/2000/svg" xmlns:xlink="http://www.w3.org/1999/xlink" viewBox="0 0 846.51 596.52"><defs><style>.cls-1,.cls-6{fill:none;}.cls-2{fill:#46291b;}.cls-3{fill:#f6d3cb;}.cls-4{clip-path:url(#clip-path);}.cls-5{fill:#231815;}.cls-6{stroke:#231815;stroke-miterlimit:10;}</style><clipPath id="clip-path"><path class="cls-1" d="M653.48,243.21a12.57,12.57,0,0,0-2,.17C637.36,137.72,541.25,56,424.78,56S212.21,137.7,198.12,243.34a12,12,0,0,0-1.7-.13c-11.52,0-20.86,16-20.86,35.69s9.34,35.7,20.86,35.7a12.71,12.71,0,0,0,4.63-.9c19.54,88.88,97.76,157.65,195,169.09l4.78,60.78h45.27l4.76-60.5c98.5-10.51,178-79.76,197.66-169.5a12.65,12.65,0,0,0,5,1c11.52,0,20.86-16,20.86-35.7S665,243.21,653.48,243.21Z"/></clipPath></defs><title>illu-hairstyle-03</title><g id="ツインテール"><path class="cls-2" d="M313.47,376.35s-136.73,61-120.06,189.47C193.41,565.82,303.46,494,313.47,376.35Z"/><path class="cls-2" d="M524.86,375.91s141.51,48.86,136.07,178.31C660.93,554.22,545.05,492.2,524.86,375.91Z"/><ellipse class="cls-2" cx="378.46" cy="225.72" rx="192.01" ry="212.83"/><ellipse class="cls-2" cx="458.9" cy="235.31" rx="202.25" ry="235.85"/><path class="cls-3" d="M653.21,243.58a12.57,12.57,0,0,0-2,.17C637.11,138.21,541.11,56.56,424.78,56.56S212.47,138.19,198.39,243.7a13.58,13.58,0,0,0-1.69-.12c-11.51,0-20.84,16-20.84,35.64s9.33,35.66,20.84,35.66a12.66,12.66,0,0,0,4.62-.9C220.84,402.75,299,471.44,396.1,482.86l4.77,60.71h45.22l4.75-60.43c98.38-10.5,177.77-79.66,197.41-169.29a12.7,12.7,0,0,0,5,1c11.5,0,20.83-16,20.83-35.66S664.71,243.58,653.21,243.58Z"/><g class="cls-4"><path class="cls-2" d="M330.52,145.56s-65.16,111.17,258.76,78.58,68-11.13,68-11.13L611.9,7.84l-179,16.65L220.57,95.27,172.7,182.69l10.41,54.12S319.75,247.89,330.52,145.56Z"/></g><polyline class="cls-2" points="211.87 228.31 269.25 152.72 352.13 102.63 457.78 88.05 546.13 129.04 594.4 190.97 633.56 207.37 645.4 216.47 634.47 170.02 609.88 120.84 570.72 94.43 509.69 45.24 479.64 45.24 418.62 43.42 370.35 43.42 317.52 59.82 285.64 92.61 249.21 108.09 240.1 130.86 219.16 167.29 206.4 192.79 199.12 212.83"/><ellipse class="cls-5" cx="348.69" cy="282.53" rx="10.42" ry="19.02"/><ellipse class="cls-5" cx="480.66" cy="282.53" rx="10.42" ry="19.02"/><path class="cls-6" d="M416.7,306.76s-28.41,20.66.86,25.83"/><path class="cls-6" d="M390.71,359.62s25.23,25.22,47-1.41"/><rect class="cls-1" x="47.74" y="-26.24" width="1330.44" height="616.31"/><rect class="cls-1" x="43.76" y="-26.24" width="1330.44" height="616.31"/><rect class="cls-1" y="-26.24" width="1330.44" height="616.31"/></g></svg>