<?xml version="1.0" encoding="utf-8"?>
<!-- Generator: Adobe Illustrator 24.0.1, SVG Export Plug-In . SVG Version: 6.00 Build 0)  -->
<svg version="1.1" id="レイヤー_1" xmlns="http://www.w3.org/2000/svg" xmlns:xlink="http://www.w3.org/1999/xlink" x="0px"
	 y="0px" viewBox="0 0 669.7 544.1" style="enable-background:new 0 0 669.7 544.1;" xml:space="preserve">
<style type="text/css">
	.st0{fill:#391E16;}
	.st1{fill:#46291B;}
	.st2{fill:#F6D3CB;}
	.st3{clip-path:url(#SVGID_2_);}
	.st4{fill:#231815;}
	.st5{fill:none;stroke:#231815;stroke-miterlimit:10;}
</style>
<title>髪型04</title>
<g id="レイヤー_2_1_">
	<g id="ポニーテール">
		<path class="st0" d="M318.8,56.4c0,0,119-132.2,218.2,13.2c0,0,36.4,62.3,47.1,144.5s64.1,82.6,85.6,70.9
			c0,0-290,116.5-346.6-80.5S318.8,56.4,318.8,56.4z"/>
		<ellipse class="st1" cx="203" cy="226.3" rx="192" ry="212.8"/>
		<ellipse class="st1" cx="283.4" cy="235.9" rx="202.2" ry="235.9"/>
		<path class="st2" d="M477.7,244.1c-0.7,0-1.3,0.1-2,0.2C461.6,138.8,365.6,57.1,249.3,57.1S37,138.7,22.9,244.3
			c-0.6-0.1-1.1-0.1-1.7-0.1c-11.5,0-20.8,16-20.8,35.6s9.3,35.6,20.8,35.6c1.6,0,3.2-0.3,4.6-0.9c19.5,88.8,97.6,157.5,194.8,168.9
			l4.8,60.7h45.2l4.8-60.4c98.4-10.5,177.8-79.7,197.4-169.3c1.6,0.7,3.3,1,5,1c11.5,0,20.8-16,20.8-35.6S489.2,244.1,477.7,244.1z"
			/>
		<g>
			<g>
				<defs>
					<path id="SVGID_1_" d="M478,243.8c-0.7,0-1.3,0.1-2,0.2C461.9,138.3,365.7,56.5,249.3,56.5S36.7,138.2,22.6,243.9
						c-0.6-0.1-1.1-0.1-1.7-0.1c-11.5,0-20.9,16-20.9,35.7s9.3,35.7,20.9,35.7c1.6,0,3.2-0.3,4.6-0.9
						c19.5,88.9,97.8,157.6,195,169.1l4.8,60.8h45.3l4.8-60.5c98.5-10.5,178-79.8,197.6-169.5c1.6,0.7,3.3,1,5,1
						c11.5,0,20.9-16,20.9-35.7S489.5,243.8,478,243.8z"/>
				</defs>
				<clipPath id="SVGID_2_">
					<use xlink:href="#SVGID_1_"  style="overflow:visible;"/>
				</clipPath>
				<g class="st3">
					<path class="st1" d="M155.1,146.1c0,0-65.2,111.2,258.7,78.6s68-11.1,68-11.1L436.4,8.4L257.4,25L45.1,95.8l-47.9,87.4
						l10.4,54.1C7.6,237.4,144.2,248.4,155.1,146.1z"/>
				</g>
			</g>
		</g>
		<polyline class="st1" points="36.4,228.9 93.7,153.3 176.6,103.2 282.3,88.6 370.6,129.6 418.9,191.5 458.1,207.9 469.9,217 
			459,170.6 434.4,121.4 395.2,95 334.2,45.8 304.1,45.8 243.1,44 194.8,44 142,60.4 110.1,93.1 73.7,108.6 64.6,131.4 43.6,167.8 
			30.9,193.3 23.6,213.4 		"/>
		<ellipse class="st4" cx="173.2" cy="283.1" rx="10.4" ry="19"/>
		<ellipse class="st4" cx="305.2" cy="283.1" rx="10.4" ry="19"/>
		<path class="st5" d="M241.2,307.3c0,0-28.4,20.7,0.9,25.8"/>
		<path class="st5" d="M215.2,360.2c0,0,25.2,25.2,47-1.4"/>
	</g>
</g>
</svg>
