<svg xmlns="http://www.w3.org/2000/svg" viewBox="0 0 846.51 334.25"><defs><style>.cls-1{fill:#fff;}.cls-2{fill:#efefef;}.cls-3{fill:#e3d1de;}.cls-4{fill:#c8bbc4;}</style></defs><title>illu-suit-04</title><g id="レイヤー_22" data-name="レイヤー 22"><polygon class="cls-1" points="371.17 334.25 475.35 334.25 475.08 26.52 361.83 25.32 371.17 334.25"/><path class="cls-2" d="M419.34,33.8l-30.8,17.79a7.83,7.83,0,0,1-11.74-6.78V9.24a7.83,7.83,0,0,1,11.74-6.78l30.8,17.78A7.83,7.83,0,0,1,419.34,33.8Z"/><path class="cls-2" d="M427.17,33.8,458,51.59a7.83,7.83,0,0,0,11.74-6.78V9.24A7.83,7.83,0,0,0,458,2.46l-30.8,17.78A7.83,7.83,0,0,0,427.17,33.8Z"/><path class="cls-3" d="M371.17,334.25H241.73c-3,0-5.47-2.06-5.63-4.69L218.55,97.9c-.92-15.82,10.3-30.24,27.42-35.23l123.43-53c3.64-1.06,7.4,1.32,7.4,4.7v315C376.8,332,374.28,334.25,371.17,334.25Z"/><path class="cls-4" d="M376.8,14.41l-56,35.5A19.54,19.54,0,0,0,319,81.64l57.79,46.47Z"/><path class="cls-4" d="M376.8,101.39l-44.71,28.34a15.6,15.6,0,0,0-1.42,25.33l46.13,37.09Z"/><path class="cls-3" d="M475.34,334.25H604.78c3,0,5.48-2.06,5.63-4.69L628,97.9c.93-15.82-10.29-30.24-27.41-35.23l-123.43-53c-3.65-1.06-7.41,1.32-7.41,4.7v315C469.71,332,472.23,334.25,475.34,334.25Z"/><path class="cls-4" d="M469.71,14.41l56,35.5a19.54,19.54,0,0,1,1.78,31.73l-57.79,46.47Z"/><path class="cls-4" d="M469.71,101.39l44.71,28.34a15.59,15.59,0,0,1,1.42,25.33l-46.13,37.09Z"/></g></svg>