<svg xmlns="http://www.w3.org/2000/svg" xmlns:xlink="http://www.w3.org/1999/xlink" viewBox="0 0 846.51 596.53"><defs><style>.cls-1,.cls-7{fill:none;}.cls-2{fill:#391e16;}.cls-3{fill:#46291b;}.cls-4{fill:#f6d3cb;}.cls-5{clip-path:url(#clip-path);}.cls-6{fill:#231815;}.cls-7{stroke:#231815;stroke-miterlimit:10;}</style><clipPath id="clip-path"><path class="cls-1" d="M653.82,242.81a12.7,12.7,0,0,0-2.05.18C637.69,137.33,541.58,55.57,425.11,55.57S212.55,137.3,198.45,242.94a12,12,0,0,0-1.7-.13c-11.52,0-20.86,16-20.86,35.7s9.34,35.69,20.86,35.69a12.91,12.91,0,0,0,4.63-.89c19.54,88.87,97.77,157.64,195,169.08l4.78,60.79h45.28l4.75-60.51c98.51-10.51,178-79.76,197.66-169.49a12.87,12.87,0,0,0,5,1c11.51,0,20.85-16,20.85-35.69S665.33,242.81,653.82,242.81Z"/></clipPath></defs><title>illu-hairstyle-04</title><g id="ポニーテール"><path class="cls-2" d="M494.64,55.51s119-132.25,218.21,13.23c0,0,36.36,62.31,47.13,144.45s64.08,82.63,85.6,70.89c0,0-290,116.52-346.62-80.53S494.64,55.51,494.64,55.51Z"/><ellipse class="cls-3" cx="378.79" cy="225.32" rx="192.01" ry="212.83"/><ellipse class="cls-3" cx="459.23" cy="234.91" rx="202.25" ry="235.85"/><path class="cls-4" d="M653.54,243.18a12.57,12.57,0,0,0-2,.17C637.44,137.82,541.44,56.16,425.11,56.16S212.8,137.79,198.72,243.31a11.91,11.91,0,0,0-1.69-.13c-11.51,0-20.84,16-20.84,35.65s9.33,35.65,20.84,35.65a12.66,12.66,0,0,0,4.62-.9C221.17,402.35,299.3,471,396.43,482.46l4.77,60.72h45.22l4.75-60.44c98.39-10.49,177.77-79.66,197.42-169.28a12.78,12.78,0,0,0,4.95,1c11.5,0,20.83-16,20.83-35.65S665,243.18,653.54,243.18Z"/><g class="cls-5"><path class="cls-3" d="M330.86,145.16s-65.17,111.17,258.75,78.59,68-11.14,68-11.14L612.23,7.45l-179,16.65L220.91,94.87,173,182.29l10.41,54.12S320.08,247.49,330.86,145.16Z"/></g><polyline class="cls-3" points="212.2 227.92 269.58 152.32 352.46 102.23 458.11 87.66 546.46 128.64 594.73 190.57 633.89 206.97 645.73 216.08 634.8 169.63 610.21 120.44 571.05 94.03 510.03 44.85 479.97 44.85 418.95 43.03 370.68 43.03 317.85 59.42 285.97 92.21 249.54 107.69 240.43 130.46 219.49 166.89 206.74 192.4 199.45 212.43"/><ellipse class="cls-6" cx="349.03" cy="282.13" rx="10.42" ry="19.02"/><ellipse class="cls-6" cx="480.99" cy="282.13" rx="10.42" ry="19.02"/><path class="cls-7" d="M417,306.37s-28.4,20.65.86,25.82"/><path class="cls-7" d="M391.05,359.22s25.22,25.22,46.94-1.4"/></g><g id="ツインテール"><rect class="cls-1" y="-19.78" width="1330.44" height="616.31"/></g></svg>