<svg xmlns="http://www.w3.org/2000/svg" viewBox="0 0 281.8 218.91"><defs><style>.cls-1{fill:#d389b8;}</style></defs><title>リボン</title><g id="レイヤー_2" data-name="レイヤー 2"><g id="リボン"><path class="cls-1" d="M138.06,118,12.32,141.12A10.42,10.42,0,0,1,.62,127.37L43.49,6.93A10.43,10.43,0,0,1,61.25,3.67L144.12,101A10.42,10.42,0,0,1,138.06,118Z"/><path class="cls-1" d="M143.73,100.88,269.47,77.79a10.43,10.43,0,0,1,11.71,13.75L238.31,212a10.43,10.43,0,0,1-17.76,3.26l-82.87-97.35A10.42,10.42,0,0,1,143.73,100.88Z"/><rect class="cls-1" x="115.84" y="68.71" width="51.84" height="83.98" rx="9.12" transform="translate(45.33 -41.13) rotate(19.59)"/></g></g></svg>