<svg xmlns="http://www.w3.org/2000/svg" xmlns:xlink="http://www.w3.org/1999/xlink" viewBox="0 0 846.51 596.53"><defs><style>.cls-1,.cls-6{fill:none;}.cls-2{fill:#46291b;}.cls-3{fill:#f6d3cb;}.cls-4{clip-path:url(#clip-path);}.cls-5{fill:#231815;}.cls-6{stroke:#231815;stroke-miterlimit:10;}</style><clipPath id="clip-path"><path class="cls-1" d="M653.72,243.65a12.67,12.67,0,0,0-2,.17C637.6,138.16,541.49,56.41,425,56.41S212.46,138.14,198.36,243.78a12,12,0,0,0-1.7-.13c-11.52,0-20.86,16-20.86,35.69s9.34,35.7,20.86,35.7a12.71,12.71,0,0,0,4.63-.9c19.54,88.88,97.77,157.65,195,169.09L401.08,544h45.28l4.75-60.5C549.62,473,629.1,403.75,648.77,314a12.69,12.69,0,0,0,5,1c11.52,0,20.86-16,20.86-35.7S665.24,243.65,653.72,243.65Z"/></clipPath></defs><title>avatarHead</title><g id="お団子"><polygon class="cls-2" points="352.3 451.99 155.45 383.16 326.31 250.39 352.3 451.99"/><polygon class="cls-2" points="523.58 249.58 503.78 457.18 695.84 357.51 523.58 249.58"/><ellipse class="cls-2" cx="378.7" cy="226.16" rx="192.01" ry="212.83"/><ellipse class="cls-2" cx="459.14" cy="235.75" rx="202.25" ry="235.85"/><path class="cls-3" d="M653.45,244a12.58,12.58,0,0,0-2,.18C637.35,138.65,541.35,57,425,57S212.71,138.63,198.63,244.14a13.59,13.59,0,0,0-1.69-.13c-11.51,0-20.84,16-20.84,35.65s9.33,35.65,20.84,35.65a12.65,12.65,0,0,0,4.62-.89c19.52,88.77,97.65,157.46,194.78,168.88L401.11,544h45.22l4.75-60.43c98.39-10.5,177.77-79.66,197.42-169.29a12.6,12.6,0,0,0,5,1c11.5,0,20.83-16,20.83-35.65S665,244,653.45,244Z"/><g class="cls-4"><path class="cls-2" d="M330.77,146S265.6,257.17,589.52,224.58s68-11.13,68-11.13L612.14,8.28l-179,16.65L220.82,95.71l-47.88,87.42,10.41,54.12S320,248.33,330.77,146Z"/></g><polyline class="cls-2" points="212.11 228.75 269.49 153.16 352.37 103.06 458.02 88.49 546.37 129.48 594.64 191.41 633.8 207.81 645.64 216.91 634.71 170.46 610.12 121.28 570.96 94.87 509.94 45.69 479.88 45.69 418.86 43.86 370.59 43.86 317.76 60.26 285.88 93.05 249.45 108.53 240.34 131.3 219.4 167.73 206.64 193.23 199.36 213.27"/><ellipse class="cls-5" cx="348.94" cy="282.97" rx="10.42" ry="19.02"/><ellipse class="cls-5" cx="480.9" cy="282.97" rx="10.42" ry="19.02"/><path class="cls-6" d="M416.94,307.2s-28.4,20.66.86,25.83"/><path class="cls-6" d="M391,360.06s25.22,25.22,46.94-1.41"/></g><g id="ツインテール"><rect class="cls-1" y="-19.78" width="1330.44" height="616.31"/></g></svg>