<svg xmlns="http://www.w3.org/2000/svg" width="375" height="532"><g transform="translate(0 54)"><path fill="#d3b489" d="M0-54h375v532H0z"/><path fill="#b57223" d="M0 237h212v7H0z"/><path d="M178.9 221.3H47.3A4.27 4.27 0 0143 217v-81.7a4.27 4.27 0 014.3-4.3h131.6a4.27 4.27 0 014.3 4.3V217a4.33 4.33 0 01-4.3 4.3z" fill="#515151"/><path fill="#d3d3d3" d="M52.5 139.2h121.1v74H52.5z"/><path fill="#6d6d6d" d="M99.7 221.5h26.7V237H99.7z"/><path fill="#444" d="M20 244h12v116H20zM195 244h12v116h-12z"/><path fill="#efefef" d="M86.5 234.5h50v3h-50zM165 237h-4a2 2 0 01-2-2 2 2 0 012-2h4a2 2 0 012 2 2 2 0 01-2 2z"/><circle cx="38" cy="38" r="38" transform="translate(266.2 55.8)" fill="#efefef"/><circle cx="3" cy="3" r="3" transform="translate(301.2 90.8)" fill="#3f3f3f"/><path fill="#383838" d="M303.2 61h2v29h-2zM329 93v2h-21v-2z"/></g></svg>