<svg xmlns="http://www.w3.org/2000/svg" width="375" height="499" viewBox="0 0 375 499">
  <g transform="translate(0 71)">
    <rect width="375" height="499" transform="translate(0 -71)" fill="#fff5ee"/>
    <g>
      <rect width="348.1" height="161" transform="translate(13 94)" fill="#109333"/>
      <rect width="348.1" height="9.3" transform="translate(13 245.7)" fill="#bcbcbc"/>
    </g>
    <g>
      <path d="M340.9,251.3H308.6a3.372,3.372,0,0,1-3.4-3.4v-6.8h39.1v6.8A3.372,3.372,0,0,1,340.9,251.3Z" fill="#0f5921"/>
      <path d="M344.3,241.1H305.2v-1.7a1.752,1.752,0,0,1,1.7-1.7h35.7a1.752,1.752,0,0,1,1.7,1.7v1.7Z" fill="#e2b546"/>
      <path d="M325.6,241.1h-1.7a1.752,1.752,0,0,1-1.7-1.7v-5.1a1.752,1.752,0,0,1,1.7-1.7h1.7a1.752,1.752,0,0,1,1.7,1.7v5.1A1.686,1.686,0,0,1,325.6,241.1Z" fill="#5b5b5b"/>
    </g>
    <g>
      <path d="M64.5,251.3H32.2a3.372,3.372,0,0,1-3.4-3.4v-6.8H67.9v6.8A3.372,3.372,0,0,1,64.5,251.3Z" fill="#0f5921"/>
      <path d="M67.9,241.1H28.8v-1.7a1.752,1.752,0,0,1,1.7-1.7H66.2a1.752,1.752,0,0,1,1.7,1.7v1.7Z" fill="#e2b546"/>
      <path d="M49.2,241.1H47.5a1.752,1.752,0,0,1-1.7-1.7v-5.1a1.752,1.752,0,0,1,1.7-1.7h1.7a1.752,1.752,0,0,1,1.7,1.7v5.1A1.685,1.685,0,0,1,49.2,241.1Z" fill="#5b5b5b"/>
    </g>
    <g>
      <rect width="106" height="8" transform="translate(135 240)" fill="#b67231"/>
      <rect width="83" height="100" transform="translate(146.5 248)" fill="#ede5da"/>
      <rect width="5" height="10" transform="translate(147 348)" fill="#606060"/>
      <rect width="5" height="10" transform="translate(224 348)" fill="#606060"/>
    </g>
    <g>
      <rect width="50" height="26" transform="translate(163 51.8)" fill="#7f7f7f"/>
      <circle cx="7.5" cy="7.5" r="7.5" transform="translate(180.5 57.3)" fill="#4f4f4f"/>
    </g>
  </g>
</svg>
