<svg xmlns="http://www.w3.org/2000/svg" xmlns:xlink="http://www.w3.org/1999/xlink" width="289" height="118" viewBox="0 0 289 118">
  <defs>
    <clipPath id="clip-path">
      <path d="M272.16,120.86H17.04A14.21,14.21,0,0,1,2.87,106.69V21.65A14.21,14.21,0,0,1,17.04,7.48H272.16a14.21,14.21,0,0,1,14.17,14.17v85.04A14.21,14.21,0,0,1,272.16,120.86Z"/>
    </clipPath>
  </defs>
  <g transform="translate(-46 -160)">
    <rect width="283" height="113" rx="12" transform="translate(52 165)" fill="#e3a93a"/>
    <g transform="translate(43.13 152.52)">
      <path d="M272.16,120.86H17.04A14.21,14.21,0,0,1,2.87,106.69V21.65A14.21,14.21,0,0,1,17.04,7.48H272.16a14.21,14.21,0,0,1,14.17,14.17v85.04A14.21,14.21,0,0,1,272.16,120.86Z" fill="#f2de89"/>
        <g clip-path="url(#clip-path)">
          <path d="M76.2,0A89.063,89.063,0,0,0,38.35,8.24a6.537,6.537,0,0,0-2.11,10.25A18.456,18.456,0,0,1,12.53,46.31,7.486,7.486,0,0,0,1.25,51.03,51.379,51.379,0,0,0,0,62.31c0,34.41,34.12,62.31,76.2,62.31s76.2-27.9,76.2-62.31S118.29,0,76.2,0Z" fill="#f3e8e8"/>
          <circle cx="8.62" cy="8.62" r="8.62" transform="translate(19.62 69.19)" fill="#ee8277"/>
          <path d="M8.62,0A8.62,8.62,0,1,1,0,8.62,8.62,8.62,0,0,1,8.62,0Z" transform="translate(46.48 90.08)" fill="#f6b07c"/>
          <circle cx="8.62" cy="8.62" r="8.62" transform="translate(84.96 91.41)" fill="#f9f1ac"/>
          <circle cx="8.62" cy="8.62" r="8.62" transform="translate(111.16 70.85)" fill="#b3d8a3"/>
          <circle cx="8.62" cy="8.62" r="8.62" transform="translate(111.83 34.03)" fill="#afb4da"/>
          <circle cx="8.62" cy="8.62" r="8.62" transform="translate(75.34 12.47)" fill="#9d88bf"/>
          <circle cx="8.62" cy="8.62" r="8.62" transform="translate(19.62 69.19)" fill="#ee8277"/>
        </g>
    </g>
    <path d="M171.23,54.17c7.13,8.34,7.57,19.67.98,25.29s-17.7,3.42-24.83-4.92,3.44-18.87-.98-25.29C140.21,40.23,164.1,45.82,171.23,54.17Z" transform="translate(43.13 152.52)" fill="#e5e5e5"/>
    <path d="M171.23,54.17c-6.88-8.55-31.02-13.93-24.83-4.92,4.42,6.43-6.15,16.95.98,25.29,0,0,12.49,3.63,9.05-4.99s5.94-8.96,9.62-6.28S176.23,60.38,171.23,54.17Z" transform="translate(43.13 152.52)" fill="#ee8277"/>
    <g transform="translate(43.13 152.52)">
      <g clip-path="url(#clip-path)">
        <path d="M256.64,175.8h0a6.584,6.584,0,0,1-9.27-.54l-74.89-84.1a6.584,6.584,0,0,1,.54-9.27h0a6.584,6.584,0,0,1,9.27.54l74.89,84.1A6.593,6.593,0,0,1,256.64,175.8Z" fill="#ee7c51"/>
      </g>
    </g>
  </g>
</svg>
