<svg xmlns="http://www.w3.org/2000/svg" xmlns:xlink="http://www.w3.org/1999/xlink" width="289.46" height="118.39" viewBox="0 0 289.46 118.39">
  <defs>
    <clipPath id="clip-path">
      <path d="M269.29,113.39H14.17A14.218,14.218,0,0,1,0,99.21V14.17A14.216,14.216,0,0,1,14.17,0H269.29a14.21,14.21,0,0,1,14.17,14.17V99.21A14.212,14.212,0,0,1,269.29,113.39Z" fill="#429f67"/>
    </clipPath>
    <clipPath id="clip-path-2">
      <path d="M269.29,113.39H14.17A14.218,14.218,0,0,1,0,99.21V14.17A14.216,14.216,0,0,1,14.17,0H269.29a14.21,14.21,0,0,1,14.17,14.17V99.21A14.212,14.212,0,0,1,269.29,113.39Z"/>
    </clipPath>
  </defs>
  <g transform="translate(-46 -481)">
    <g transform="translate(0 -90)">
      <g transform="translate(52 576)">
        <path d="M269.29,113.39H14.17A14.218,14.218,0,0,1,0,99.21V14.17A14.216,14.216,0,0,1,14.17,0H269.29a14.21,14.21,0,0,1,14.17,14.17V99.21A14.212,14.212,0,0,1,269.29,113.39Z" fill="#429f67"/>
          <g clip-path="url(#clip-path)">
            <path d="M21.6,68.6,14.99,56.02,77.51,23.17l16.63,1.2Z" fill="#429f67"/>
            <path d="M21.6,68.6,14.99,56.02,77.51,23.17l16.63,1.2Z" fill="#429f67"/>
            <path d="M104.01,166.05,30.8,206.17V58.51l66.13-36.3Z" fill="#429f67"/>
            <path d="M78.25,23.45,76.47,18.1,6.81,58.04h9.23Z" fill="#429f67"/>
            <path d="M78.25,23.45,76.47,18.1,6.81,58.04h9.23Z" fill="#429f67"/>
            <rect width="24.77" height="148.2" transform="translate(6.73 58.09)" fill="#429f67"/>
              <path d="M49.14,74.13,42.53,61.56,105.06,28.7l16.62,1.2Z" fill="#429f67"/>
              <path d="M49.14,74.13,42.53,61.56,105.06,28.7l16.62,1.2Z" fill="#429f67"/>
              <path d="M105.8,28.99l-1.79-5.35L34.35,63.57h9.23Z" fill="#429f67"/>
                <path d="M131.56,171.58,58.34,211.7V64.04l66.14-36.3Z" fill="#429f67"/>
                <rect width="24.65" height="148.26" transform="translate(34.28 63.56)" fill="#429f67"/>
              <path d="M105.8,28.99l-1.79-5.35L34.35,63.57h9.23Z" fill="#429f67"/>
            <path d="M79.43,83.8,98.8,86.01l59.16-36.04-19.5-1.38Z" fill="#429f67"/>
            <rect width="72.65" height="4.36" transform="translate(75.028 82.556) rotate(-31.722)" fill="#429f67"/>
            <path d="M186.99,194.39,126.46,228.7,98.62,82.39l60.21-33.02Z" fill="#429f67"/>
            <path d="M126.46,228.7l-26.87-.65L74.99,82.71H98.62Z" fill="#429f67"/>
          </g>
          <text id="DICTIONALY" transform="translate(119.826 37.777)" fill="#429f67" font-size="23.638" font-family="Helvetica"><tspan x="0" y="0">DICTIONALY</tspan></text>
        <line x2="155.64" transform="translate(119.29 42.72)" fill="none" stroke="#5bb653" stroke-miterlimit="10" stroke-width="2"/>
      </g>
      <path d="M269.29,113.39H14.17A14.218,14.218,0,0,1,0,99.21V14.17A14.216,14.216,0,0,1,14.17,0H269.29a14.21,14.21,0,0,1,14.17,14.17V99.21A14.212,14.212,0,0,1,269.29,113.39Z" transform="translate(46 571)" fill="#bcdfca"/>
    </g>
    <g transform="translate(46 481)">
      <g clip-path="url(#clip-path-2)">
        <path d="M21.6,68.6,14.99,56.02,77.51,23.17l16.63,1.2Z" fill="#f6f4e5"/>
        <path d="M21.6,68.6,14.99,56.02,77.51,23.17l16.63,1.2Z" fill="#f6f4e5"/>
        <path d="M104.01,166.05,30.8,206.17V58.51l66.13-36.3Z" fill="#ed8383"/>
        <path d="M78.25,23.45,76.47,18.1,6.81,58.04h9.23Z" fill="#297d9f"/>
        <path d="M78.25,23.45,76.47,18.1,6.81,58.04h9.23Z" fill="#eb5f5e"/>
        <rect width="24.77" height="148.2" transform="translate(6.73 58.09)" fill="#eb6766"/>
          <path d="M49.14,74.13,42.53,61.56,105.06,28.7l16.62,1.2Z" fill="#f6f4e5"/>
          <path d="M49.14,74.13,42.53,61.56,105.06,28.7l16.62,1.2Z" fill="#f6f4e5"/>
          <path d="M105.8,28.99l-1.79-5.35L34.35,63.57h9.23Z" fill="#297d9f"/>
            <path d="M131.56,171.58,58.34,211.7V64.04l66.14-36.3Z" fill="#288ab9"/>
            <rect width="24.65" height="148.26" transform="translate(34.28 63.56)" fill="#297d9f"/>
          <path d="M105.8,28.99l-1.79-5.35L34.35,63.57h9.23Z" fill="#297d9f"/>
        <path d="M79.43,83.8,98.8,86.01l59.16-36.04-19.5-1.38Z" fill="#f6f4e5"/>
        <rect width="72.65" height="4.36" transform="translate(75.028 82.556) rotate(-31.722)" fill="#b1a11b"/>
        <path d="M186.99,194.39,126.46,228.7,98.62,82.39l60.21-33.02Z" fill="#e1d57f"/>
        <path d="M126.46,228.7l-26.87-.65L74.99,82.71H98.62Z" fill="#aba74e"/>
      </g>
    </g>
  </g>
</svg>
