<svg xmlns="http://www.w3.org/2000/svg" width="750" height="1059"><defs><style>.cls-1{fill:#e9e9e9;fill-rule:evenodd}.cls-7{font-family:KozGoPr6N-Bold,&quot;Kozuka Gothic Pr6N&quot;}.cls-14,.cls-7{fill:#2f2f2f}.cls-14,.cls-22,.cls-7{font-size:30px}.cls-8{fill:#aad6a8}</style></defs><path class="cls-1" d="M222.95 948.9l258.32-108.04 3.86 9.22-258.32 108.04zM230.05 668.84l256.72-111.77 9.18 21.09-256.72 111.77zM275.4 368.98l228.3 162.11L484.6 558 256.3 395.88zM518.47 184.82l-232 156.77-18.48-27.35 232-156.76z"/><path class="cls-1" d="M266.92 696.79L502 848.89l-8.7 13.43-235.08-152.1z"/><path fill="#e9e9e9" d="M-1 0h752v200H-1z"/><text x="144.12" y="132.75" font-family="KozGoPr6N-Bold,&quot;Kozuka Gothic Pr6N&quot;" fill="#d74701" font-size="80">3000<tspan font-size="50" fill="#2f2f2f">P</tspan></text><text x="405.07" y="128.84" font-size="70" fill="#2f2f2f" font-family="KozGoPr6N-Bold,&quot;Kozuka Gothic Pr6N&quot;">990<tspan font-size="50">点</tspan></text><text class="cls-7" x="408.19" y="73.89">TOEIC</text><circle class="cls-8" cx="229" cy="946" r="75"/><circle class="cls-8" cx="505" cy="843" r="90"/><circle class="cls-8" cx="230" cy="691" r="110"/><circle class="cls-8" cx="505" cy="558" r="125"/><circle class="cls-8" cx="230" cy="361" r="150"/><text x="197.11" y="929.12" font-size="30" font-family="KozGoPr6N-Bold,&quot;Kozuka Gothic Pr6N&quot;" fill="#d74701">500<tspan font-size="20" fill="#2f2f2f">P</tspan></text><text x="456.11" y="822.12" font-size="35" font-family="KozGoPr6N-Bold,&quot;Kozuka Gothic Pr6N&quot;" fill="#d74701">1000<tspan font-size="25" fill="#2f2f2f">P</tspan></text><text x="174.11" y="672.12" font-size="40" font-family="KozGoPr6N-Bold,&quot;Kozuka Gothic Pr6N&quot;" fill="#d74701">1500<tspan class="cls-14">P</tspan></text><text x="444.11" y="534.12" font-size="45" font-family="KozGoPr6N-Bold,&quot;Kozuka Gothic Pr6N&quot;" fill="#d74701">2000<tspan class="cls-14">P</tspan></text><text x="160.11" y="332.12" font-size="50" font-family="KozGoPr6N-Bold,&quot;Kozuka Gothic Pr6N&quot;" fill="#d74701">2500<tspan font-size="40" fill="#2f2f2f">P</tspan></text><text class="cls-7" x="192.87" y="985.82">350<tspan font-size="20">点</tspan></text><text x="462.87" y="886.82" font-size="35" fill="#2f2f2f" font-family="KozGoPr6N-Bold,&quot;Kozuka Gothic Pr6N&quot;">450<tspan font-size="25">点</tspan></text><text x="180.87" y="743.82" font-size="40" fill="#2f2f2f" font-family="KozGoPr6N-Bold,&quot;Kozuka Gothic Pr6N&quot;">550<tspan class="cls-22">点</tspan></text><text x="450.87" y="617.82" font-size="45" fill="#2f2f2f" font-family="KozGoPr6N-Bold,&quot;Kozuka Gothic Pr6N&quot;">650<tspan class="cls-22">点</tspan></text><text x="166.87" y="415.81" font-size="50" fill="#2f2f2f" font-family="KozGoPr6N-Bold,&quot;Kozuka Gothic Pr6N&quot;">750<tspan font-size="40">点</tspan></text><text class="cls-7" x="168.19" y="376.89">TOEIC</text><text x="452.19" y="578.89" font-size="25" fill="#2f2f2f" font-family="KozGoPr6N-Bold,&quot;Kozuka Gothic Pr6N&quot;">TOEIC</text><text x="180.19" y="710.89" font-size="23" fill="#2f2f2f" font-family="KozGoPr6N-Bold,&quot;Kozuka Gothic Pr6N&quot;">TOEIC</text><text x="463.19" y="855.89" font-size="20" fill="#2f2f2f" font-family="KozGoPr6N-Bold,&quot;Kozuka Gothic Pr6N&quot;">TOEIC</text><text x="194.19" y="959.89" font-size="15" fill="#2f2f2f" font-family="KozGoPr6N-Bold,&quot;Kozuka Gothic Pr6N&quot;">TOEIC</text></svg>