<svg xmlns="http://www.w3.org/2000/svg" viewBox="0 0 15.85 26.08"><style>.cls-1{fill:#f5e948;}.cls-2{fill:#272828;}</style><polygon class="cls-1" points="12.64 4.99 9.05 1.53 4.75 2.17 2.42 4.42 1.37 7.1 1.37 9.57 1.51 10.91 2.14 14.85 3.76 16.4 6.02 16.97 8.06 16.97 9.61 16.26 12.01 14.85 12.71 12.95 12.92 10.77 13.21 7.24 12.64 4.99"/><path class="cls-2" d="M15.85.39c-.1,1.29-.17,2.73-.17,4.94V15.78c0,3.13-.06,10.3-8.54,10.3a10.76,10.76,0,0,1-5.63-1.42l.73-2.13a9.85,9.85,0,0,0,5,1.34c3.29,0,5.69-1.74,5.69-6.47V15.26h-.07a6.14,6.14,0,0,1-5.56,3.06C3.06,18.32,0,14.53,0,9.5,0,3.29,3.88,0,7.76,0a5.77,5.77,0,0,1,5.43,3.09h.06l.13-2.7ZM12.92,7.3A4.84,4.84,0,0,0,8.16,2.2C5,2.2,2.79,5,2.79,9.34c0,3.81,1.85,6.81,5.33,6.81a4.91,4.91,0,0,0,4.8-5.27Z"/></svg>