<svg xmlns="http://www.w3.org/2000/svg" xmlns:xlink="http://www.w3.org/1999/xlink" width="104.104" height="103.339" viewBox="0 0 104.104 103.339">
  <defs>
    <clipPath id="clip-path">
      <rect id="長方形_24" data-name="長方形 24" width="74.245" height="62.922" fill="none"/>
    </clipPath>
  </defs>
  <g id="グループ_72" data-name="グループ 72" transform="translate(-216.896 -379.661)">
    <rect id="長方形_59" data-name="長方形 59" width="100" height="100" rx="12" transform="translate(221 383)" fill="#4d935d" opacity="0.799"/>
    <rect id="長方形_30" data-name="長方形 30" width="100" height="100" rx="12" transform="translate(217.396 380.161)" fill="#fff" stroke="#c9c9c9" stroke-miterlimit="10" stroke-width="1"/>
    <g id="グループ_7" data-name="グループ 7" transform="translate(230.692 399.079)">
      <rect id="長方形_19" data-name="長方形 19" width="3.802" height="35.023" transform="translate(41.706 0)" fill="#95bbe3"/>
      <rect id="長方形_20" data-name="長方形 20" width="2.985" height="27.513" transform="translate(50.531 7.51)" fill="#95bbe3"/>
      <rect id="長方形_21" data-name="長方形 21" width="2.605" height="24.018" transform="translate(58.349 11.005)" fill="#95bbe3"/>
      <rect id="長方形_22" data-name="長方形 22" width="3.108" height="28.644" transform="translate(65.678 6.379)" fill="#95bbe3"/>
      <g id="グループ_6" data-name="グループ 6" transform="translate(0 0)">
        <g id="グループ_5" data-name="グループ 5" clip-path="url(#clip-path)">
          <line id="線_1" data-name="線 1" x2="32.865" transform="translate(41.38 35.096)" fill="none" stroke="#989696" stroke-miterlimit="10" stroke-width="1"/>
          <path id="パス_8" data-name="パス 8" d="M32.02,17.269A16.01,16.01,0,1,1,16.011,1.258,16.009,16.009,0,0,1,32.02,17.269" transform="translate(0 1.594)" fill="#f8a23c"/>
          <path id="パス_9" data-name="パス 9" d="M32.02,8.321A16.01,16.01,0,0,1,0,8.321Z" transform="translate(0 10.542)" fill="#8fc069"/>
          <path id="パス_10" data-name="パス 10" d="M16.01,33.28a16.011,16.011,0,0,1,0-32.022Z" transform="translate(0.001 1.594)" fill="#e7696d"/>
          <path id="パス_11" data-name="パス 11" d="M61.944,37.867H3.846A2.272,2.272,0,0,1,1.579,35.6V21.373a2.271,2.271,0,0,1,2.267-2.267h58.1a2.272,2.272,0,0,1,2.267,2.267V35.6a2.274,2.274,0,0,1-2.267,2.267" transform="translate(2 24.205)" fill="#fff"/>
          <rect id="長方形_23" data-name="長方形 23" width="62.634" height="18.761" rx="1" transform="translate(3.578 43.31)" fill="none" stroke="#989696" stroke-miterlimit="10" stroke-width="0.75"/>
          <line id="線_2" data-name="線 2" x2="43.105" transform="translate(13.343 47.896)" fill="none" stroke="#989696" stroke-miterlimit="10" stroke-width="0.5"/>
          <line id="線_3" data-name="線 3" x2="43.105" transform="translate(13.343 56.563)" fill="none" stroke="#989696" stroke-miterlimit="10" stroke-width="0.5"/>
          <line id="線_4" data-name="線 4" x2="43.105" transform="translate(13.343 52.342)" fill="none" stroke="#989696" stroke-miterlimit="10" stroke-width="0.5"/>
        </g>
      </g>
    </g>
  </g>
</svg>
