<svg xmlns="http://www.w3.org/2000/svg" xmlns:xlink="http://www.w3.org/1999/xlink" width="104.104" height="103.5" viewBox="0 0 104.104 103.5">
  <defs>
    <clipPath id="clip-path">
      <rect id="長方形_44" data-name="長方形 44" width="79.921" height="59.992" fill="none"/>
    </clipPath>
  </defs>
  <g id="グループ_69" data-name="グループ 69" transform="translate(-216.896 -149.5)">
    <rect id="長方形_58" data-name="長方形 58" width="100" height="100" rx="12" transform="translate(221 153)" fill="#4d935d" opacity="0.799"/>
    <g id="グループ_37" data-name="グループ 37" transform="translate(-10 -0.161)">
      <rect id="長方形_28" data-name="長方形 28" width="100" height="100" rx="12" transform="translate(227.396 150.161)" fill="#fff" stroke="#c9c9c9" stroke-miterlimit="10" stroke-width="1"/>
      <g id="グループ_35" data-name="グループ 35" transform="translate(239.326 169)">
        <g id="グループ_34" data-name="グループ 34" transform="translate(0 0)" clip-path="url(#clip-path)">
          <path id="パス_96" data-name="パス 96" d="M1.4,30.925s-2.424-6.286,4.065-11.592l5.225,10.576" transform="translate(1.313 26.441)" fill="#414b69"/>
          <path id="パス_97" data-name="パス 97" d="M18.849,20.533A9.425,9.425,0,1,1,9.426,11.11a9.424,9.424,0,0,1,9.423,9.423" transform="translate(0 15.195)" fill="#d2cfce"/>
          <path id="パス_98" data-name="パス 98" d="M16.3,30.26s-1.941-9.324-9.48-11.81l-.31,12.662" transform="translate(8.901 25.234)" fill="#414b69"/>
          <path id="パス_99" data-name="パス 99" d="M4.534,19.254,1.711,22.774l3.2,1.468-2.195,1.47,6.033,2.709Z" transform="translate(2.341 26.333)" fill="#27355a"/>
          <path id="パス_100" data-name="パス 100" d="M5.261,27.748,4.83,20.431l1.293-.2,2.5,6.781" transform="translate(6.606 27.675)" fill="#efa090"/>
          <path id="パス_101" data-name="パス 101" d="M6.608,18.4,10.2,20.6,8.138,23.153l2.327.533L6.556,28.449Z" transform="translate(8.967 25.167)" fill="#27355a"/>
          <path id="パス_102" data-name="パス 102" d="M8.676,18.915,3.787,19.947l1.738,2.5,2.552-.488Z" transform="translate(5.179 25.869)" fill="#efa090"/>
          <path id="パス_103" data-name="パス 103" d="M36.615,30.925s2.434-6.286-4.079-11.592L27.291,29.909" transform="translate(37.325 26.441)" fill="#414b69"/>
          <path id="パス_104" data-name="パス 104" d="M24.392,20.533a9.455,9.455,0,1,0,9.454-9.423,9.439,9.439,0,0,0-9.454,9.423" transform="translate(33.36 15.195)" fill="#d2cfce"/>
          <path id="パス_105" data-name="パス 105" d="M21.7,30.26s1.949-9.324,9.511-11.81l.31,12.662" transform="translate(29.68 25.234)" fill="#414b69"/>
          <path id="パス_106" data-name="パス 106" d="M31.908,19.254l2.834,3.521-3.213,1.468,2.2,1.47-6.054,2.709Z" transform="translate(37.856 26.333)" fill="#27355a"/>
          <path id="パス_107" data-name="パス 107" d="M29.3,27.748l.433-7.316-1.3-.2-2.507,6.781" transform="translate(35.459 27.675)" fill="#efa090"/>
          <path id="パス_108" data-name="パス 108" d="M28.016,18.4,24.41,20.6l2.069,2.557-2.335.533,3.923,4.764Z" transform="translate(33.022 25.167)" fill="#27355a"/>
          <path id="パス_109" data-name="パス 109" d="M26.508,18.915l4.906,1.032-1.743,2.5-2.564-.488Z" transform="translate(36.254 25.869)" fill="#efa090"/>
          <path id="パス_110" data-name="パス 110" d="M31.167,17.738a9.425,9.425,0,1,1-9.423-9.423,9.424,9.424,0,0,1,9.423,9.423" transform="translate(16.847 11.372)" fill="#d2cfce"/>
          <path id="パス_111" data-name="パス 111" d="M11.7,28.892s-1.241-8.656,6.871-12.667l2.576,13.032" transform="translate(15.905 22.191)" fill="#414b69"/>
          <path id="パス_112" data-name="パス 112" d="M16.608,16.191l-3.464,3.265,2.626,1.977L13.88,22.918l4.51,3.362Z" transform="translate(17.976 22.144)" fill="#27355a"/>
          <path id="パス_113" data-name="パス 113" d="M25.942,28.892s1.148-8.656-6.376-12.667L17.175,29.257" transform="translate(23.49 22.191)" fill="#414b69"/>
          <path id="パス_114" data-name="パス 114" d="M19.1,16.191l3.211,3.265-2.432,1.977,1.75,1.485L17.444,26.28Z" transform="translate(23.857 22.144)" fill="#27355a"/>
          <path id="パス_115" data-name="パス 115" d="M15.223,16.522l5.716-.223L18.98,19.936H17.245Z" transform="translate(20.82 22.292)" fill="#efa090"/>
          <path id="パス_116" data-name="パス 116" d="M15.777,25.856l.71-8.005,1.52-.026.672,8.145" transform="translate(21.578 24.378)" fill="#efa090"/>
          <path id="パス_117" data-name="パス 117" d="M.221,31.116c0-5.524,17.774-10,39.7-10s39.7,4.48,39.7,10" transform="translate(0.302 28.876)" fill="#aa662f"/>
          <path id="パス_118" data-name="パス 118" d="M27.87,0H4.667A2.375,2.375,0,0,0,2.3,2.368v9.5a2.375,2.375,0,0,0,2.368,2.368h1.25l-.433,3.45,3.45-3.45H27.87a2.373,2.373,0,0,0,2.368-2.368v-9.5A2.373,2.373,0,0,0,27.87,0" transform="translate(3.144 0)" fill="#faf1a1"/>
          <path id="パス_119" data-name="パス 119" d="M20.856,2.921h22.4a2.264,2.264,0,0,1,2.285,2.23V14.1a2.264,2.264,0,0,1-2.285,2.23H42.049l.417,3.251-3.329-3.251H20.856a2.266,2.266,0,0,1-2.285-2.23V5.151a2.266,2.266,0,0,1,2.285-2.23" transform="translate(25.399 3.995)" fill="#97ccb1"/>
        </g>
      </g>
    </g>
  </g>
</svg>
