<svg xmlns="http://www.w3.org/2000/svg" viewBox="0 0 13.38 18.74"><style>.cls-1{fill:#8bc77f;}.cls-2{fill:#272828;}</style><polygon class="cls-1" points="8.56 8.51 4.78 8.73 4.28 9.46 2.97 10.18 2.39 11.34 2.02 12.65 2.02 14.1 2.39 16.21 3.11 17 4.13 17.3 5.15 17.44 6.67 17.15 8.2 16.93 9.94 15.34 11.17 13.67 11.17 11.93 10.95 9.31 10.52 8.59 8.56 8.51"/><path class="cls-2" d="M13.12,14.07a25.18,25.18,0,0,0,.26,4.28h-2.5l-.26-2.3h-.1a6.23,6.23,0,0,1-5.29,2.69A5,5,0,0,1,0,13.65C0,9.34,3.75,7,10.39,7c0-1.52,0-4.94-4.08-4.94A7.73,7.73,0,0,0,1.94,3.39L1.28,1.51A10.26,10.26,0,0,1,6.74,0c5.06,0,6.38,3.58,6.38,7.14Zm-2.7-5C7,9,2.79,9.54,2.79,13.32a3,3,0,0,0,3.1,3.32,4.38,4.38,0,0,0,4.53-4.21Z"/></svg>