<svg xmlns="http://www.w3.org/2000/svg" viewBox="0 0 14.93 18.71"><style>.cls-1{fill:#f5e948;}.cls-2{fill:#272828;}</style><polygon class="cls-1" points="1.98 4.25 1.38 7.83 13.54 7.63 12.35 3.45 10.55 1.45 6.76 0.66 2.97 2.85 1.98 4.25"/><path class="cls-2" d="M14,17.59a12.84,12.84,0,0,1-5.62,1.12C3.12,18.71,0,15,0,9.67,0,4,3.16,0,8,0c5.52,0,6.94,5.06,6.94,8.19,0,.62,0,1.08-.07,1.51H2.66c0,5,2.86,6.84,6.09,6.84a11.35,11.35,0,0,0,4.7-.92ZM12.23,7.66c0-2.43-1-5.59-4.5-5.59-3.29,0-4.74,3.13-5,5.59Z"/></svg>