<svg id="グループ_4" data-name="グループ 4" xmlns="http://www.w3.org/2000/svg" width="175" height="38.456" viewBox="0 0 175 38.456">
  <path id="パス_4" data-name="パス 4" d="M106.178,12.667l-.678,4.057,13.753-.226L117.9,11.763l-2.023-2.249-4.283-.9L107.308,11.1Z" transform="translate(13.721 1.12)" fill="#f5e948"/>
  <path id="パス_5" data-name="パス 5" d="M151.7,16.31l-3.955.554-3.3,2.023-1.379,3.3.373,2.848,1.74.735,2.2.915,2.294-1.006,1.559-.644,1.288-1.288.825-1.559.271-3.209-.452-2.023-1.017-.735Z" transform="translate(18.607 2.109)" fill="#77c4e3"/>
  <path id="パス_6" data-name="パス 6" d="M48.829,16.47l-4.26.249-.576.814-1.48.825-.655,1.311-.407,1.48v1.639l.407,2.373.825.9,1.141.328,1.153.17,1.718-.328,1.729-.249,1.966-1.808,1.39-1.887V20.323l-.249-2.949-.486-.825Z" transform="translate(5.391 2.142)" fill="#8bc77f"/>
  <g id="グループ_3" data-name="グループ 3">
    <path id="パス_7" data-name="パス 7" d="M14.3,12.263,10.173,7.98l-4.927.78-2.667,2.8L1.37,14.885v3.062l.158,1.661L2.263,24.5l1.853,1.921,2.588.7H9.043l1.785-.87L13.575,24.5l.8-2.362.249-2.712.328-4.373Z" transform="translate(0.178 1.038)" fill="#f5e948"/>
    <g id="グループ_2" data-name="グループ 2">
      <g id="グループ_1" data-name="グループ 1">
        <path id="パス_8" data-name="パス 8" d="M17.911,8.4c-.113,1.446-.192,3.085-.192,5.571v11.82c0,3.526-.079,11.628-9.662,11.628a12.086,12.086,0,0,1-6.351-1.593l.814-2.418A11.131,11.131,0,0,0,8.2,34.934c3.718,0,6.43-1.966,6.43-7.323V25.193h-.079a6.921,6.921,0,0,1-6.283,3.458C3.458,28.651,0,24.38,0,18.7,0,11.678,4.385,7.96,8.769,7.96a6.517,6.517,0,0,1,6.136,3.492h.079L15.131,8.4h2.78ZM14.6,16.209a5.468,5.468,0,0,0-5.39-5.763c-3.571,0-6.057,3.153-6.057,8.069,0,4.306,2.079,7.7,6.023,7.7A5.547,5.547,0,0,0,14.6,20.266V16.209Z" transform="translate(0 1.035)" fill="#272828"/>
        <path id="パス_9" data-name="パス 9" d="M54.246,23.86a28.241,28.241,0,0,0,.294,4.825H51.715l-.294-2.6h-.113a7.047,7.047,0,0,1-5.978,3.051,5.617,5.617,0,0,1-5.91-5.763c0-4.871,4.238-7.5,11.741-7.47,0-1.706,0-5.571-4.611-5.571a8.762,8.762,0,0,0-4.938,1.446l-.746-2.113a11.562,11.562,0,0,1,6.17-1.706c5.718,0,7.21,4.046,7.21,8.069Zm-3.04-5.684c-3.831,0-8.622.554-8.622,4.825,0,2.6,1.639,3.752,3.492,3.752A4.958,4.958,0,0,0,51.206,22Z" transform="translate(5.127 1.035)" fill="#272828"/>
        <path id="パス_10" data-name="パス 10" d="M80.615,29.732H77.53V0h3.085Z" transform="translate(10.083)" fill="#272828"/>
        <path id="パス_11" data-name="パス 11" d="M119.917,27.838a14.72,14.72,0,0,1-6.351,1.266c-5.91,0-9.436-4.159-9.436-10.216,0-6.351,3.571-10.928,9.029-10.928,6.238,0,7.843,5.718,7.843,9.255,0,.7-.034,1.22-.079,1.706H107.136c.034,5.605,3.232,7.73,6.871,7.73a12.785,12.785,0,0,0,5.311-1.04Zm-1.966-11.221c.034-2.746-1.119-6.317-5.085-6.317-3.718,0-5.356,3.526-5.65,6.317Z" transform="translate(13.542 1.035)" fill="#272828"/>
        <path id="パス_12" data-name="パス 12" d="M156.306,23.86a28.242,28.242,0,0,0,.294,4.825h-2.825l-.294-2.6h-.113a7.047,7.047,0,0,1-5.978,3.051,5.617,5.617,0,0,1-5.91-5.763c0-4.871,4.238-7.5,11.741-7.47,0-1.706,0-5.571-4.611-5.571a8.762,8.762,0,0,0-4.938,1.446l-.746-2.113A11.562,11.562,0,0,1,149.1,7.96c5.718,0,7.21,4.046,7.21,8.069V23.86Zm-3.051-5.684c-3.831,0-8.622.554-8.622,4.825,0,2.6,1.639,3.752,3.492,3.752A4.958,4.958,0,0,0,153.255,22v-3.82Z" transform="translate(18.4 1.035)" fill="#272828"/>
      </g>
    </g>
  </g>
</svg>
