<svg xmlns="http://www.w3.org/2000/svg" viewBox="0 0 13.38 18.74"><style>.cls-1{fill:#77c4e3;}.cls-2{fill:#272828;}</style><polygon class="cls-1" points="9.23 8.35 5.74 8.83 2.81 10.62 1.6 13.54 1.92 16.06 3.46 16.71 5.41 17.52 7.44 16.63 8.82 16.06 9.96 14.92 10.69 13.54 10.94 10.7 10.53 8.91 9.64 8.26 9.23 8.35"/><path class="cls-2" d="M13.12,14.07a25.18,25.18,0,0,0,.26,4.28h-2.5l-.26-2.3h-.1a6.23,6.23,0,0,1-5.29,2.69A5,5,0,0,1,0,13.65C0,9.34,3.75,7,10.39,7c0-1.52,0-4.94-4.08-4.94A7.73,7.73,0,0,0,1.94,3.39L1.28,1.51A10.26,10.26,0,0,1,6.74,0c5.06,0,6.38,3.58,6.38,7.14Zm-2.7-5C7,9,2.79,9.54,2.79,13.32a3,3,0,0,0,3.1,3.32,4.38,4.38,0,0,0,4.53-4.21Z"/></svg>