<svg xmlns="http://www.w3.org/2000/svg" width="125.787" height="150.15" viewBox="0 0 125.787 150.15">
  <g id="グループ_9" data-name="グループ 9" transform="translate(0 -521)">
    <g id="グループ_7" data-name="グループ 7" transform="translate(0 521)">
      <g id="グループ_6" data-name="グループ 6">
        <g id="グループ_5" data-name="グループ 5">
          <path id="パス_13" data-name="パス 13" d="M35.93,104.63s-7.47,36.86,14.01,45.52c0,0-17.76-34.57,21.21-37.86,39.64-2.26,32.65,33.99,32.65,33.99s23.16-35.31-6.3-55.81S35.93,104.63,35.93,104.63Z" fill="#5a6bb2"/>
          <path id="パス_14" data-name="パス 14" d="M35.99,105.18s43.88,20.53,67.4-16.48l-9.2-12.81L76.15,53.54l-29,3.27-.18,32.71Z" fill="#fff"/>
        </g>
        <path id="パス_15" data-name="パス 15" d="M72.64,45.85S107.89,33.51,114.39,0L102.21,51.51s-3.35,30.15,7.7,37.43c0,0,8.86,7.32,15.22,5.94S90.09,106.29,69.28,56.34,72.64,45.85,72.64,45.85Z" fill="#5a6bb2"/>
        <path id="パス_16" data-name="パス 16" d="M42.59,56.55S11.89,80.3,0,61.36c0,0,7.02,21.83,29.23,20.88s8.05,15.67,8.05,15.67S23.1,116.12,11.84,111.75c0,0,46.99,8.41,40.15-52.14Z" fill="#5a6bb2"/>
      </g>
      <path id="パス_17" data-name="パス 17" d="M67.88,67.83S79.5,91.96,89.33,95.24l-.9,9.29-10.91-4.37S65.05,72.41,65.36,68.04,67.88,67.83,67.88,67.83Z" fill="#ea5958"/>
      <path id="パス_18" data-name="パス 18" d="M54.62,60.47l13.52-3.84,1,10.85-6.01,1.51Z" fill="#ea5958"/>
      <circle id="楕円形_1" data-name="楕円形 1" cx="25.91" cy="25.91" r="25.91" transform="translate(30.43 11.68)" fill="#f5ea29"/>
    </g>
  </g>
</svg>
