<svg xmlns="http://www.w3.org/2000/svg" width="21" height="20" viewBox="0 0 21 20">
  <g id="合体_1" data-name="合体 1" transform="translate(0 757)" fill="#fff">
    <path d="M 10.11579990386963 -739.0001220703125 L 10.07660007476807 -739.0001220703125 L 10.07660007476807 -739.8094482421875 L 10.07660007476807 -741.2281494140625 L 8.737640380859375 -741.697021484375 C 8.45403003692627 -741.79638671875 8.177030563354492 -741.9209594726562 7.914320468902588 -742.0673828125 L 6.552900314331055 -742.8262329101562 L 5.484470367431641 -741.69140625 L 4.444027423858643 -740.5863647460938 L 4.428679943084717 -740.6005249023438 L 5.561150074005127 -741.8037109375 L 6.556090354919434 -742.8607788085938 L 5.859410285949707 -744.1343383789062 C 5.633220195770264 -744.5478515625 5.465420246124268 -744.9893798828125 5.360660076141357 -745.44677734375 L 5.004936695098877 -746.9998168945312 L 5.054310321807861 -746.9998168945312 L 5.528130054473877 -748.3276977539062 C 5.627690315246582 -748.606689453125 5.752650260925293 -748.8792724609375 5.899550437927246 -749.137939453125 L 6.683340072631836 -750.517822265625 L 5.517630100250244 -751.5947265625 L 4.428702831268311 -752.6007080078125 L 4.440775394439697 -752.613525390625 L 5.684190273284912 -751.4652099609375 L 6.731270313262939 -750.4982299804688 L 7.987060070037842 -751.17236328125 C 8.227800369262695 -751.3015747070312 8.480299949645996 -751.4127807617188 8.737540245056152 -751.5028686523438 L 10.07660007476807 -751.9717407226562 L 10.07660007476807 -753.3905029296875 L 10.07660007476807 -754.9999389648438 L 10.11579990386963 -754.9999389648438 L 10.11579990386963 -753.6218872070312 L 10.11579990386963 -752.0216674804688 L 11.6770601272583 -751.6705932617188 C 12.17018032073975 -751.5597534179688 12.64412021636963 -751.3787231445312 13.08573055267334 -751.1326293945312 L 14.44686985015869 -750.3740844726562 L 15.51525020599365 -751.5083618164062 L 16.55612564086914 -752.613525390625 L 16.57120513916016 -752.599609375 L 15.43912029266357 -751.3968505859375 L 14.44393062591553 -750.3395385742188 L 15.14103031158447 -749.0658569335938 C 15.27050018310547 -748.8292846679688 15.38199043273926 -748.5808715820312 15.47241020202637 -748.3275756835938 L 15.94626998901367 -746.9998168945312 L 15.99573421478271 -746.9998168945312 L 15.63993072509766 -745.4468994140625 C 15.52894020080566 -744.9624633789062 15.34755992889404 -744.4966430664062 15.100830078125 -744.0623168945312 L 14.31704044342041 -742.6825561523438 L 15.48245048522949 -741.6055908203125 L 16.57122421264648 -740.5994873046875 L 16.55890655517578 -740.5863647460938 L 15.31567001342773 -741.7345581054688 L 14.26858997344971 -742.7015380859375 L 13.0128002166748 -742.0274047851562 C 12.5921106338501 -741.8015747070312 12.14276027679443 -741.634033203125 11.67722988128662 -741.5293579101562 L 10.11579990386963 -741.178466796875 L 10.11579990386963 -739.5780639648438 L 10.11579990386963 -739.0001220703125 Z" stroke="none"/>
    <path d="M 10.29872608184814 -743.2694702148438 L 11.23867034912109 -743.480712890625 C 11.5272798538208 -743.5455932617188 11.80592060089111 -743.6494750976562 12.06684017181396 -743.78955078125 L 12.89967918395996 -744.2366333007812 L 13.36184024810791 -745.0501708984375 C 13.51238059997559 -745.3152465820312 13.62294006347656 -745.5989990234375 13.69044017791748 -745.8935546875 L 13.89652061462402 -746.7930297851562 L 13.58876991271973 -747.6553344726562 C 13.53367042541504 -747.8096923828125 13.46565055847168 -747.9612426757812 13.38661003112793 -748.1056518554688 L 12.93799686431885 -748.9253540039062 L 12.11211013793945 -749.3856201171875 C 11.83817005157471 -749.5382690429688 11.54417991638184 -749.6505737304688 11.23832035064697 -749.7192993164062 L 10.2989559173584 -749.9305419921875 L 9.398480415344238 -749.615234375 C 9.239049911499023 -749.5593872070312 9.082449913024902 -749.4904174804688 8.933010101318359 -749.4102172851562 L 8.100461006164551 -748.9632568359375 L 7.638610363006592 -748.150146484375 C 7.548810482025146 -747.9920654296875 7.472500324249268 -747.8256225585938 7.411800384521484 -747.655517578125 L 7.104071140289307 -746.7930908203125 L 7.31017017364502 -745.893310546875 C 7.373870372772217 -745.6151733398438 7.476110458374023 -745.3463134765625 7.614030361175537 -745.0941772460938 L 8.062412261962891 -744.2745361328125 L 8.888020515441895 -743.8143920898438 C 9.051010131835938 -743.7235107421875 9.222820281982422 -743.646240234375 9.398680686950684 -743.5846557617188 L 10.29872608184814 -743.2694702148438 M 12.11579990386963 -737.0001220703125 L 8.076600074768066 -737.0001220703125 L 8.076600074768066 -739.8094482421875 C 7.680970191955566 -739.947998046875 7.301430225372314 -740.1193237304688 6.940610408782959 -740.3204345703125 L 4.542300224304199 -737.773193359375 L 1.588500261306763 -740.5010986328125 L 4.104790210723877 -743.1744995117188 C 3.79468035697937 -743.7413940429688 3.559060335159302 -744.3544311523438 3.411140203475952 -745.000244140625 L 2.731323149873788e-07 -745.000244140625 L 2.731323149873788e-07 -748.9998168945312 L 3.644460201263428 -748.9998168945312 C 3.784280300140381 -749.3916625976562 3.957480192184448 -749.7682495117188 4.160490036010742 -750.1256713867188 L 1.588500261306763 -752.501708984375 L 4.34250020980835 -755.4266967773438 L 7.04110050201416 -752.9345092773438 C 7.371620178222656 -753.1119384765625 7.717690467834473 -753.2648315429688 8.076600074768066 -753.3905029296875 L 8.076600074768066 -756.9999389648438 L 12.11579990386963 -756.9999389648438 L 12.11579990386963 -753.6218872070312 C 12.80613994598389 -753.4666748046875 13.45907020568848 -753.2141723632812 14.05934047698975 -752.879638671875 L 16.45829963684082 -755.4266967773438 L 19.41119956970215 -752.6987915039062 L 16.89546012878418 -750.0260620117188 C 17.07473945617676 -749.698486328125 17.22908973693848 -749.3555297851562 17.35604095458984 -748.9998168945312 L 20.99970054626465 -748.9998168945312 L 20.99970054626465 -745.000244140625 L 17.58941078186035 -745.000244140625 C 17.43270111083984 -744.3162841796875 17.17761039733887 -743.6690673828125 16.83983039855957 -743.074462890625 L 19.41119956970215 -740.6982421875 L 16.65719985961914 -737.773193359375 L 13.95876026153564 -740.2652587890625 C 13.3863000869751 -739.9579467773438 12.76784992218018 -739.724609375 12.11579990386963 -739.5780639648438 L 12.11579990386963 -737.0001220703125 Z" stroke="none" fill="#696969"/>
  </g>
</svg>
