<svg xmlns="http://www.w3.org/2000/svg" xmlns:xlink="http://www.w3.org/1999/xlink" width="147.998" height="251.725" viewBox="0 0 147.998 251.725">
  <defs>
    <clipPath id="clip-path">
      <rect width="147.998" height="251.725" fill="none"/>
    </clipPath>
    <clipPath id="clip-path-2">
      <path id="パス_283" data-name="パス 283" d="M440.828,75.727a5.1,5.1,0,0,0-.606.047c-4.172-31.289-32.7-55.493-67.252-55.493s-63.068,24.2-67.252,55.482a3.619,3.619,0,0,0-.5-.035c-3.414,0-6.188,4.731-6.188,10.57s2.774,10.57,6.188,10.57a3.7,3.7,0,0,0,1.375-.268c5.8,26.313,29.005,46.683,57.859,50.063l1.422,18H379.31l1.41-17.911c29.227-3.111,52.813-23.621,58.651-50.191a3.764,3.764,0,0,0,1.468.3c3.414,0,6.188-4.731,6.188-10.57S444.254,75.727,440.828,75.727Z" transform="translate(-299.03 -20.28)"/>
    </clipPath>
  </defs>
  <g id="リピートグリッド_1" data-name="リピートグリッド 1" clip-path="url(#clip-path)">
    <g id="グループ_204" data-name="グループ 204" transform="translate(-245 -1729.285)">
      <rect id="長方形_135" data-name="長方形 135" width="37" height="105" transform="translate(300 1873)" fill="#fff"/>
      <g id="グループ_172" data-name="グループ 172" transform="translate(2.99 1541.346)">
        <path id="パス_281" data-name="パス 281" d="M440.828,75.727a5.1,5.1,0,0,0-.606.047c-4.172-31.289-32.7-55.493-67.252-55.493s-63.068,24.2-67.252,55.482a3.619,3.619,0,0,0-.5-.035c-3.414,0-6.188,4.731-6.188,10.57s2.774,10.57,6.188,10.57a3.7,3.7,0,0,0,1.375-.268c5.8,26.313,29.005,46.683,57.859,50.063l1.422,18H379.31l1.41-17.911c29.227-3.111,52.813-23.621,58.651-50.191a3.764,3.764,0,0,0,1.468.3c3.414,0,6.188-4.731,6.188-10.57S444.254,75.727,440.828,75.727Z" transform="translate(-57.02 167.659)" fill="#f5d2ca"/>
        <g id="グループ_167" data-name="グループ 167" transform="translate(242.01 187.939)">
          <g id="グループ_166" data-name="グループ 166" transform="translate(0 0)" clip-path="url(#clip-path-2)">
            <path id="パス_282" data-name="パス 282" d="M309.6,76.714s29.262-1.328,40.018-21.046c0,0,54.188,21.163,94.94,19.718l18.925-3.519L393.84,0,325.563,5.827,301.149,48.56l-.909,15.056V74.3l4.172,3.088Z" transform="translate(-298.83 -23.633)" fill="#231815"/>
          </g>
        </g>
        <ellipse id="楕円形_11" data-name="楕円形 11" cx="3.1" cy="5.64" rx="3.1" ry="5.64" transform="translate(292.154 252.161)" fill="#231815"/>
        <ellipse id="楕円形_12" data-name="楕円形 12" cx="3.1" cy="5.64" rx="3.1" ry="5.64" transform="translate(331.356 252.161)" fill="#231815"/>
        <path id="パス_284" data-name="パス 284" d="M362.582,86.4s-8.437,6.13.256,7.656" transform="translate(-47.12 178.591)" fill="none" stroke="#231815" stroke-miterlimit="10" stroke-width="3"/>
        <path id="パス_285" data-name="パス 285" d="M355.43,99.91s7.493,7.481,13.949-.42" transform="translate(-47.695 180.755)" fill="none" stroke="#231815" stroke-miterlimit="10" stroke-width="3"/>
        <g id="グループ_170" data-name="グループ 170" transform="translate(251.999 327.321)">
          <path id="パス_286" data-name="パス 286" d="M351.552,145.019h0a4.663,4.663,0,0,0,7.377,3.461h0a4.667,4.667,0,0,0-.921-8.1h0A4.675,4.675,0,0,0,351.552,145.019Z" transform="translate(-300.337 -139.865)" fill="#efefef"/>
          <path id="パス_287" data-name="パス 287" d="M373.334,144.424h0a4.67,4.67,0,0,1-6.992,4.184h0a4.671,4.671,0,0,1,.117-8.157h0A4.667,4.667,0,0,1,373.334,144.424Z" transform="translate(-298.276 -139.887)" fill="#efefef"/>
          <g id="グループ_168" data-name="グループ 168" transform="translate(0 1.139)">
            <path id="パス_288" data-name="パス 288" d="M324.987,252.068l35.531-.058a3.1,3.1,0,0,0,3.1-3.24l-4.591-104.939a3.108,3.108,0,0,0-4.545-2.61L314.545,162a12.876,12.876,0,0,0-6.712,13.844l14.1,73.708A3.11,3.11,0,0,0,324.987,252.068Z" transform="translate(-307.602 -140.864)" fill="#7590b8"/>
            <path id="パス_289" data-name="パス 289" d="M354.582,200.47a1.507,1.507,0,0,0,2.447-1.282l-.746-16.408.035.035-1.806-39.831a1.394,1.394,0,0,0-2.377-.956L335.75,158.2a5.516,5.516,0,0,0,.373,8.157l12.551,10.22-6.864,6.771a4.715,4.715,0,0,0,.315,6.98Z" transform="translate(-303.216 -140.74)" fill="#527abc"/>
            <path id="パス_290" data-name="パス 290" d="M307.79,170.88l5.967,72.973a3.289,3.289,0,0,0,3.181,3.018l8.006.233" transform="translate(-307.57 -135.902)" fill="#7590b8"/>
          </g>
          <g id="グループ_169" data-name="グループ 169" transform="translate(74.918 0.162)">
            <path id="パス_291" data-name="パス 291" d="M412.514,250.528l-36.72,1.6a3.187,3.187,0,0,1-3.368-3.111l-.536-105.848a3.2,3.2,0,0,1,4.556-2.843l42.325,19.053A12.957,12.957,0,0,1,426.416,173l-10.861,74.85A3.2,3.2,0,0,1,412.514,250.528Z" transform="translate(-371.89 -140.026)" fill="#7590b8"/>
            <path id="パス_292" data-name="パス 292" d="M374.782,200.167a1.572,1.572,0,0,1-2.6-1.177l-.058-16.559-.035.035-.14-40.181a1.447,1.447,0,0,1,2.412-1.072l17.76,15.522a5.451,5.451,0,0,1,.023,8.227L379.7,175.835l7.435,6.491a4.676,4.676,0,0,1,.023,7.05Z" transform="translate(-371.88 -139.891)" fill="#527abc"/>
            <path id="パス_293" data-name="パス 293" d="M420.641,168.32l-2.494,73.731a3.34,3.34,0,0,1-3.135,3.181l-8.262.606" transform="translate(-366.126 -135.348)" fill="#7590b8"/>
          </g>
        </g>
      </g>
    </g>
  </g>
</svg>
